<?xml version="1.0" encoding="utf-8"?>
<!-- Generator: Adobe Illustrator 17.1.0, SVG Export Plug-In . SVG Version: 6.00 Build 0)  -->
<!DOCTYPE svg PUBLIC "-//W3C//DTD SVG 1.1//EN" "http://www.w3.org/Graphics/SVG/1.1/DTD/svg11.dtd" [
	<!ENTITY ns_flows "http://ns.adobe.com/Flows/1.0/">
	<!ENTITY ns_extend "http://ns.adobe.com/Extensibility/1.0/">
	<!ENTITY ns_ai "http://ns.adobe.com/AdobeIllustrator/10.0/">
	<!ENTITY ns_graphs "http://ns.adobe.com/Graphs/1.0/">
	<!ENTITY st0 "fill:none;stroke:#FFFFFF;stroke-width:10.3523;stroke-miterlimit:10;">
	<!ENTITY st1 "fill:#FFFFFF;stroke:#FFFFFF;">
]>
<svg version="1.1" id="圖層_1" xmlns:x="&ns_extend;" xmlns:i="&ns_ai;" xmlns:graph="&ns_graphs;"
	 xmlns="http://www.w3.org/2000/svg" xmlns:xlink="http://www.w3.org/1999/xlink" xmlns:a="http://ns.adobe.com/AdobeSVGViewerExtensions/3.0/"
	 x="0px" y="0px" viewBox="0 0 780.378 196.054" style="enable-background:new 0 0 780.378 196.054;" xml:space="preserve">
<g>
	<g>
		<path style="&st0;" d="M169.017,98.237c0,43.097-34.935,78.029-78.024,78.029c-43.092,0-78.026-34.932-78.026-78.029
			c0-43.091,34.934-78.023,78.026-78.023C134.081,20.214,169.017,55.146,169.017,98.237z"/>
		<line style="&st0;" x1="90.992" y1="20.214" x2="90.992" y2="176.266"/>
		<line style="&st0;" x1="90.992" y1="104.06" x2="38.808" y2="156.246"/>
		<line style="&st0;" x1="90.992" y1="92.42" x2="142.784" y2="39.887"/>
	</g>
	<g>
		<path style="&st1;" d="M238.429,91.035c-5.591,0-10.939-0.949-16.047-2.846c-5.109-1.897-9.833-4.814-14.181-8.748l7.66-9.11
			c3.518,3.038,7.073,5.368,10.662,6.989c3.589,1.621,7.66,2.431,12.216,2.431c3.933,0,7.056-0.827,9.368-2.484
			c2.312-1.656,3.468-3.865,3.468-6.625v-0.207c0-1.311-0.222-2.467-0.674-3.468c-0.448-1.001-1.281-1.95-2.49-2.848
			c-1.213-0.897-2.871-1.724-4.98-2.485c-2.113-0.758-4.863-1.517-8.253-2.276c-3.876-0.897-7.316-1.916-10.325-3.055
			c-3.009-1.139-5.537-2.517-7.579-4.14c-2.039-1.621-3.599-3.606-4.671-5.953c-1.072-2.345-1.607-5.176-1.607-8.489v-0.207
			c0-3.105,0.617-5.953,1.847-8.541c1.233-2.588,2.929-4.795,5.082-6.625c2.157-1.828,4.751-3.26,7.781-4.297
			c3.029-1.035,6.339-1.552,9.927-1.552c5.314,0,10.096,0.775,14.339,2.329c4.246,1.554,8.229,3.814,11.956,6.78l-6.831,9.628
			c-3.312-2.414-6.591-4.26-9.836-5.538c-3.242-1.276-6.521-1.914-9.834-1.914c-3.727,0-6.625,0.827-8.694,2.484
			c-2.073,1.656-3.107,3.693-3.107,6.108v0.207c0,1.382,0.239,2.607,0.725,3.675c0.485,1.072,1.368,2.037,2.649,2.898
			c1.277,0.864,3.043,1.675,5.291,2.433c2.251,0.76,5.105,1.554,8.563,2.381c3.804,0.967,7.181,2.037,10.12,3.21
			c2.942,1.174,5.378,2.606,7.316,4.297c1.938,1.692,3.41,3.658,4.411,5.901c1.004,2.243,1.506,4.849,1.506,7.816v0.206
			c0,3.383-0.634,6.419-1.901,9.11c-1.267,2.693-3.029,4.969-5.287,6.832c-2.258,1.863-4.971,3.279-8.142,4.244
			C245.705,90.552,242.224,91.035,238.429,91.035z"/>
		<path style="&st1;" d="M303.751,91.242c-4.138,0-7.986-0.741-11.542-2.226c-3.555-1.483-6.625-3.501-9.213-6.056
			c-2.588-2.553-4.607-5.555-6.056-9.006c-1.449-3.451-2.174-7.107-2.174-10.974v-0.207c0-3.932,0.742-7.624,2.224-11.077
			c1.483-3.449,3.521-6.47,6.11-9.058c2.588-2.588,5.658-4.64,9.213-6.159c3.552-1.518,7.434-2.278,11.646-2.278
			c4.209,0,8.091,0.741,11.646,2.226c3.552,1.484,6.625,3.52,9.213,6.108s4.607,5.591,6.056,9.006
			c1.449,3.417,2.174,7.092,2.174,11.024v0.207c0,3.867-0.742,7.523-2.224,10.974c-1.486,3.452-3.521,6.47-6.11,9.058
			c-2.588,2.588-5.678,4.642-9.264,6.16C311.862,90.483,307.96,91.242,303.751,91.242z M303.96,80.373
			c2.537,0,4.816-0.465,6.841-1.397c2.022-0.932,3.754-2.191,5.197-3.78c1.439-1.587,2.537-3.432,3.289-5.538
			c0.755-2.105,1.132-4.33,1.132-6.678v-0.207c0-2.414-0.411-4.692-1.233-6.832c-0.822-2.138-1.971-4.002-3.447-5.591
			c-1.476-1.585-3.222-2.846-5.247-3.778c-2.022-0.932-4.27-1.399-6.737-1.399c-2.47,0-4.718,0.467-6.74,1.399
			c-2.025,0.932-3.758,2.174-5.196,3.727c-1.439,1.552-2.537,3.4-3.292,5.538c-0.751,2.14-1.129,4.382-1.129,6.728v0.207
			c0,2.418,0.411,4.677,1.233,6.782c0.822,2.106,1.971,3.968,3.444,5.589c1.476,1.623,3.225,2.9,5.247,3.832
			C299.347,79.908,301.561,80.373,303.96,80.373z"/>
		<path style="&st1;" d="M346.508,14.43h12.63v75.571h-12.63V14.43z"/>
		<path style="&st1;" d="M370.215,35.341h13.456l14.703,40.166l14.804-40.166h13.146l-22.363,55.074h-11.282L370.215,35.341z"/>
		<path style="&st1;" d="M462.037,91.242c-3.933,0-7.609-0.691-11.026-2.071c-3.414-1.378-6.383-3.312-8.903-5.796
			c-2.517-2.486-4.502-5.469-5.951-8.956c-1.449-3.484-2.174-7.331-2.174-11.542v-0.207c0-3.935,0.654-7.626,1.968-11.077
			c1.307-3.451,3.154-6.47,5.537-9.058c2.382-2.588,5.193-4.624,8.438-6.108c3.242-1.485,6.831-2.226,10.767-2.226
			c4.347,0,8.159,0.793,11.438,2.381c3.279,1.589,6.005,3.727,8.179,6.418c2.174,2.692,3.811,5.815,4.917,9.37
			c1.105,3.555,1.658,7.297,1.658,11.232c0,0.552-0.02,1.122-0.054,1.708c-0.033,0.586-0.088,1.189-0.155,1.811h-40.165
			c0.687,4.487,2.467,7.919,5.331,10.3c2.864,2.381,6.332,3.572,10.403,3.572c3.107,0,5.8-0.552,8.078-1.656
			c2.274-1.104,4.519-2.726,6.726-4.866l7.35,6.522c-2.622,3.105-5.742,5.589-9.368,7.453
			C471.406,90.311,467.075,91.242,462.037,91.242z M474.459,58.841c-0.206-2.002-0.657-3.882-1.345-5.643
			c-0.691-1.759-1.621-3.277-2.793-4.554c-1.176-1.277-2.575-2.295-4.196-3.055c-1.621-0.758-3.467-1.139-5.537-1.139
			c-3.865,0-7.056,1.331-9.577,3.987c-2.521,2.657-4.054,6.125-4.607,10.404H474.459z"/>
		<path style="&st1;" d="M534.19,17.535h5.382v72.466h-5.382V17.535z"/>
		<path style="&st1;" d="M577.772,91.035c-3.865,0-7.73-0.723-11.596-2.167c-3.865-1.446-7.212-3.311-10.042-5.597l3.003-4.037
			c2.898,2.211,5.935,3.917,9.112,5.125c3.171,1.208,6.45,1.811,9.833,1.811c3.589,0,6.61-0.895,9.057-2.686
			c2.453-1.791,3.673-4.236,3.673-7.335v-0.207c0-1.515-0.377-2.824-1.132-3.926c-0.762-1.102-1.8-2.066-3.107-2.893
			c-1.314-0.826-2.797-1.515-4.453-2.066c-1.658-0.549-3.417-1.1-5.281-1.653c-2.14-0.618-4.297-1.274-6.47-1.963
			c-2.174-0.689-4.125-1.567-5.847-2.634c-1.729-1.068-3.124-2.393-4.195-3.978c-1.068-1.584-1.604-3.547-1.604-5.889v-0.207
			c0-2.135,0.431-4.079,1.294-5.837c0.863-1.756,2.052-3.288,3.572-4.597c1.516-1.309,3.346-2.325,5.486-3.048
			c2.14-0.723,4.485-1.085,7.04-1.085c3.174,0,6.436,0.529,9.784,1.587c3.343,1.058,6.329,2.496,8.957,4.313l-2.696,4.244
			c-2.413-1.586-5.021-2.863-7.818-3.83c-2.792-0.966-5.606-1.449-8.433-1.449c-3.66,0-6.575,0.878-8.748,2.635
			c-2.174,1.756-3.262,3.941-3.262,6.56v0.206c0,1.447,0.414,2.704,1.244,3.771c0.829,1.068,1.914,1.981,3.262,2.738
			c1.344,0.758,2.915,1.429,4.708,2.015c1.796,0.585,3.626,1.154,5.49,1.703c2.136,0.622,4.243,1.294,6.313,2.017
			c2.069,0.723,3.936,1.653,5.587,2.789c1.658,1.137,2.986,2.497,3.99,4.081c0.998,1.584,1.496,3.545,1.496,5.887v0.207
			c0,2.342-0.465,4.46-1.395,6.354c-0.93,1.894-2.224,3.513-3.882,4.856c-1.658,1.343-3.585,2.375-5.796,3.098
			C582.706,90.673,580.323,91.035,577.772,91.035z"/>
		<path style="&st1;" d="M629.222,91.035c-3.869,0-7.73-0.723-11.599-2.167c-3.862-1.446-7.212-3.311-10.042-5.597l3.006-4.037
			c2.898,2.211,5.931,3.917,9.112,5.125c3.168,1.208,6.45,1.811,9.833,1.811c3.586,0,6.605-0.895,9.058-2.686
			c2.447-1.791,3.673-4.236,3.673-7.335v-0.207c0-1.515-0.378-2.824-1.139-3.926c-0.762-1.102-1.793-2.066-3.107-2.893
			c-1.307-0.826-2.79-1.515-4.448-2.066c-1.658-0.549-3.417-1.1-5.284-1.653c-2.136-0.618-4.293-1.274-6.47-1.963
			c-2.17-0.689-4.125-1.567-5.843-2.634c-1.732-1.068-3.127-2.393-4.199-3.978c-1.065-1.584-1.604-3.547-1.604-5.889v-0.207
			c0-2.135,0.431-4.079,1.294-5.837c0.863-1.756,2.056-3.288,3.572-4.597c1.516-1.309,3.35-2.325,5.486-3.048
			c2.143-0.723,4.489-1.085,7.043-1.085c3.174,0,6.437,0.529,9.779,1.587c3.35,1.058,6.335,2.496,8.957,4.313l-2.689,4.244
			c-2.42-1.586-5.021-2.863-7.818-3.83c-2.797-0.966-5.607-1.449-8.438-1.449c-3.66,0-6.571,0.878-8.748,2.635
			c-2.17,1.756-3.262,3.941-3.262,6.56v0.206c0,1.447,0.418,2.704,1.247,3.771c0.829,1.068,1.914,1.981,3.262,2.738
			c1.341,0.758,2.911,1.429,4.704,2.015c1.799,0.585,3.626,1.154,5.493,1.703c2.137,0.622,4.239,1.294,6.309,2.017
			c2.076,0.723,3.936,1.653,5.594,2.789c1.658,1.137,2.986,2.497,3.983,4.081c1.005,1.584,1.503,3.545,1.503,5.887v0.207
			c0,2.342-0.465,4.46-1.395,6.354c-0.937,1.894-2.231,3.513-3.882,4.856c-1.658,1.343-3.592,2.375-5.803,3.098
			C634.155,90.673,631.77,91.035,629.222,91.035z"/>
		<path style="&st1;" d="M683.672,91.242c-3.309,0-6.281-0.534-8.903-1.604c-2.622-1.07-4.846-2.569-6.679-4.504
			c-1.826-1.931-3.208-4.226-4.138-6.883c-0.93-2.657-1.395-5.574-1.395-8.748V37.205h5.068v31.367
			c0,5.453,1.449,9.818,4.347,13.095c2.898,3.279,7.043,4.917,12.428,4.917c2.548,0,4.947-0.465,7.191-1.397
			c2.244-0.932,4.192-2.226,5.85-3.882c1.658-1.656,2.952-3.64,3.882-5.953c0.93-2.312,1.395-4.848,1.395-7.609V37.205h5.075v52.796
			h-5.075v-9.835c-1.793,3.105-4.205,5.73-7.245,7.869C692.434,90.173,688.505,91.242,683.672,91.242z"/>
		<path style="&st1;" d="M749.365,91.242c-3.458,0-6.76-0.655-9.908-1.966c-3.147-1.311-5.917-3.174-8.303-5.591
			c-2.386-2.414-4.273-5.313-5.655-8.696c-1.382-3.38-2.076-7.142-2.076-11.284v-0.207c0-3.794,0.641-7.365,1.914-10.715
			c1.281-3.346,3.04-6.263,5.284-8.746c2.237-2.486,4.879-4.452,7.919-5.901c3.033-1.451,6.349-2.175,9.934-2.175
			c3.727,0,7.077,0.709,10.042,2.123c2.966,1.415,5.506,3.365,7.609,5.848c2.103,2.485,3.727,5.402,4.866,8.748
			c1.139,3.348,1.705,6.987,1.705,10.922c0,0.483,0,0.846,0,1.087c0,0.243-0.033,0.57-0.101,0.984h-43.788
			c0.209,3.295,0.937,6.215,2.177,8.755c1.247,2.541,2.804,4.704,4.671,6.49c1.867,1.784,3.997,3.143,6.389,4.069
			c2.386,0.927,4.893,1.39,7.522,1.39c4.152,0,7.663-0.794,10.534-2.383c2.871-1.585,5.419-3.553,7.63-5.9l3.518,3.107
			c-2.689,2.898-5.749,5.297-9.173,7.194C758.652,90.294,754.413,91.242,749.365,91.242z M767.319,61.118
			c-0.209-2.691-0.748-5.262-1.611-7.712c-0.863-2.448-2.076-4.623-3.633-6.522c-1.557-1.897-3.478-3.416-5.762-4.555
			c-2.285-1.139-4.947-1.708-7.993-1.708c-2.629,0-5.082,0.517-7.367,1.554c-2.285,1.035-4.273,2.468-5.971,4.295
			c-1.692,1.83-3.094,4.004-4.206,6.523c-1.105,2.52-1.759,5.228-1.968,8.127H767.319z"/>
	</g>
	<g>
		<path style="&st1;" d="M234.985,167.774v2.628c-8.314,2.47-17.502,4.381-27.566,5.729l-0.472-3.033
			C216.023,172.29,225.369,170.514,234.985,167.774z M234.918,137.512H207.15v-2.763h27.768V137.512z M210.587,143.309l2.763-0.674
			c2.696,8.357,4.583,16.04,5.661,23.05l-2.966,0.809C214.968,158.854,213.149,151.127,210.587,143.309z M214.631,120.663
			l2.494-1.213c1.977,2.965,4.155,7.144,6.538,12.536l-2.898,1.146C218.743,128.144,216.697,123.989,214.631,120.663z
			 M228.785,142.365l2.696,0.539c-0.989,8.853-2.943,16.805-5.864,23.859l-2.696-1.011
			C225.841,158.877,227.796,151.083,228.785,142.365z M239.366,181.051h-2.898v-29.453h10.986V118.17h3.1v15.636h19.006v2.763
			h-19.006v15.03h14.49v29.453h-2.965v-5.526h-22.713V181.051z M262.079,154.362h-22.713v18.4h22.713V154.362z"/>
		<path style="&st1;" d="M279.373,158.001l-1.887-2.089c3.639-3.37,5.459-7.842,5.459-13.412v-7.346h25.207v11.188h-22.646
			C284.876,150.746,282.832,154.632,279.373,158.001z M291.235,154.025h-5.796v-2.628h49.942v2.628h-9.705v17.388l14.625-0.809
			v2.561l-14.625,0.674v7.211h-2.763v-7.077c-14.334,0.718-29.296,1.237-44.887,1.55l-0.337-2.561l13.547-0.27V154.025z
			 M294.133,117.63h2.696v4.448h14.693v2.494h-14.693v4.111h11.929v2.561H281.8v-2.561h12.334v-4.111h-14.76v-2.494h14.76V117.63z
			 M285.574,137.647v6.066h8.627v-6.066H285.574z M293.931,154.025v4.044h28.981v-4.044H293.931z M293.931,160.63v4.179h28.981
			v-4.179H293.931z M293.931,172.627c12.401-0.313,22.061-0.697,28.981-1.146v-4.179h-28.981V172.627z M305.523,143.713v-6.066
			h-8.694v6.066H305.523z M309.028,150.116l-0.741-2.628c4.807-0.674,9.412-2.046,13.816-4.112
			c-3.415-2.335-5.887-4.627-7.414-6.874h-3.707v-2.561h24.128v2.494c-2.202,2.966-4.831,5.301-7.885,7.01
			c3.953,2.201,8.266,3.707,12.94,4.516l-1.011,2.426c-5.213-0.987-10.066-2.807-14.558-5.459
			C319.879,147.353,314.69,149.081,309.028,150.116z M309.904,130.706c4.223-0.539,6.336-2.585,6.336-6.133v-4.65h14.693v6.807
			c0,1.527,0.718,2.292,2.157,2.292h5.055v2.628h-5.055c-3.191,0-4.785-1.617-4.785-4.852v-4.313h-9.503v2.089
			c0,4.897-2.652,7.775-7.953,8.627L309.904,130.706z M331.943,136.502h-14.221c1.842,2.113,4.155,4,6.942,5.661
			C327.674,140.32,330.1,138.432,331.943,136.502z"/>
	</g>
</g>
<g>
</g>
<g>
</g>
<g>
</g>
<g>
</g>
<g>
</g>
<g>
</g>
<g>
</g>
<g>
</g>
<g>
</g>
<g>
</g>
<g>
</g>
<g>
</g>
<g>
</g>
<g>
</g>
<g>
</g>
</svg>
