<?xml version="1.0" encoding="utf-8"?>
<!-- Generator: Adobe Illustrator 17.1.0, SVG Export Plug-In . SVG Version: 6.00 Build 0)  -->
<!DOCTYPE svg PUBLIC "-//W3C//DTD SVG 1.1//EN" "http://www.w3.org/Graphics/SVG/1.1/DTD/svg11.dtd" [
	<!ENTITY ns_flows "http://ns.adobe.com/Flows/1.0/">
	<!ENTITY ns_extend "http://ns.adobe.com/Extensibility/1.0/">
	<!ENTITY ns_ai "http://ns.adobe.com/AdobeIllustrator/10.0/">
	<!ENTITY ns_graphs "http://ns.adobe.com/Graphs/1.0/">
	<!ENTITY st0 "fill:none;stroke:#FFFFFF;stroke-width:7.9856;stroke-miterlimit:10;">
	<!ENTITY st1 "fill:#FFFFFF;stroke:#FFFFFF;stroke-width:7.9856;stroke-miterlimit:10;">
	<!ENTITY st2 "fill:#FFFFFF;">
]>
<svg version="1.1" id="圖層_1" xmlns:x="&ns_extend;" xmlns:i="&ns_ai;" xmlns:graph="&ns_graphs;"
	 xmlns="http://www.w3.org/2000/svg" xmlns:xlink="http://www.w3.org/1999/xlink" xmlns:a="http://ns.adobe.com/AdobeSVGViewerExtensions/3.0/"
	 x="0px" y="0px" viewBox="0 0 465.494 281.444" style="enable-background:new 0 0 465.494 281.444;" xml:space="preserve">
<g>
	<g>
		<path style="&st0;" d="M316.164,93.79c0,43.323-35.119,78.437-78.431,78.437c-43.318,0-78.437-35.114-78.437-78.437
			c0-43.312,35.119-78.431,78.437-78.431C281.045,15.358,316.164,50.477,316.164,93.79z"/>
		<line style="&st1;" x1="237.732" y1="15.358" x2="237.732" y2="172.226"/>
		<line style="&st1;" x1="237.732" y1="99.644" x2="185.275" y2="152.106"/>
		<line style="&st1;" x1="237.732" y1="87.941" x2="289.797" y2="35.135"/>
	</g>
	<g>
		<path style="&st2;" d="M33.71,267.362c-4.312,0-8.438-0.73-12.379-2.194c-3.941-1.464-7.585-3.712-10.939-6.748l5.909-7.029
			c2.714,2.345,5.456,4.143,8.225,5.391c2.769,1.253,5.909,1.877,9.423,1.877c3.033,0,5.443-0.64,7.226-1.916
			c1.783-1.276,2.675-2.982,2.675-5.11v-0.159c0-1.014-0.172-1.903-0.52-2.677c-0.346-0.77-0.988-1.503-1.921-2.194
			c-0.936-0.692-2.215-1.331-3.842-1.918c-1.63-0.585-3.751-1.17-6.366-1.757c-2.989-0.692-5.643-1.477-7.965-2.355
			c-2.321-0.878-4.271-1.942-5.846-3.192c-1.573-1.253-2.776-2.781-3.603-4.593c-0.827-1.809-1.24-3.993-1.24-6.548v-0.161
			c0-2.394,0.476-4.591,1.425-6.587c0.951-1.996,2.259-3.699,3.92-5.111c1.664-1.409,3.665-2.516,6.002-3.314
			c2.337-0.798,4.89-1.198,7.658-1.198c4.099,0,7.788,0.598,11.061,1.799c3.275,1.196,6.348,2.942,9.223,5.23l-5.269,7.424
			c-2.555-1.861-5.085-3.286-7.588-4.271c-2.501-0.985-5.03-1.477-7.585-1.477c-2.875,0-5.111,0.637-6.707,1.916
			c-1.599,1.279-2.397,2.849-2.397,4.71v0.161c0,1.066,0.185,2.012,0.559,2.833c0.375,0.827,1.055,1.573,2.043,2.236
			c0.985,0.668,2.347,1.294,4.081,1.877c1.737,0.587,3.938,1.201,6.605,1.838c2.935,0.746,5.539,1.573,7.806,2.477
			c2.269,0.905,4.149,2.009,5.643,3.312c1.495,1.305,2.631,2.823,3.403,4.554c0.775,1.729,1.162,3.738,1.162,6.028v0.159
			c0,2.61-0.489,4.952-1.466,7.029c-0.977,2.074-2.337,3.831-4.079,5.269c-1.742,1.437-3.834,2.529-6.28,3.273
			C39.322,266.99,36.637,267.362,33.71,267.362z"/>
		<path style="&st2;" d="M84.098,267.523c-3.192,0-6.161-0.572-8.903-1.716c-2.743-1.144-5.111-2.703-7.107-4.674
			c-1.996-1.968-3.554-4.284-4.671-6.946c-1.118-2.662-1.677-5.482-1.677-8.464v-0.161c0-3.033,0.572-5.88,1.716-8.544
			c1.144-2.659,2.716-4.991,4.713-6.987c1.996-1.996,4.365-3.58,7.107-4.749c2.74-1.172,5.734-1.757,8.984-1.757
			c3.247,0,6.242,0.572,8.984,1.716c2.74,1.144,5.111,2.714,7.107,4.71c1.996,1.996,3.553,4.315,4.671,6.948
			c1.118,2.636,1.676,5.472,1.676,8.503v0.161c0,2.984-0.572,5.802-1.716,8.464c-1.146,2.665-2.716,4.991-4.713,6.987
			s-4.38,3.582-7.146,4.752C90.355,266.935,87.345,267.523,84.098,267.523z M84.259,259.137c1.958,0,3.715-0.359,5.277-1.076
			c1.56-0.717,2.896-1.689,4.008-2.917c1.11-1.222,1.958-2.646,2.537-4.271c0.582-1.625,0.873-3.34,0.873-5.149v-0.161
			c0-1.861-0.317-3.618-0.951-5.272c-0.634-1.648-1.521-3.086-2.659-4.31c-1.139-1.224-2.485-2.197-4.047-2.917
			c-1.56-0.717-3.294-1.076-5.196-1.076c-1.905,0-3.639,0.359-5.199,1.076c-1.563,0.72-2.899,1.679-4.008,2.875
			c-1.11,1.198-1.957,2.625-2.54,4.274c-0.58,1.651-0.871,3.379-0.871,5.188v0.161c0,1.867,0.317,3.608,0.952,5.23
			c0.634,1.627,1.521,3.062,2.657,4.312c1.138,1.25,2.488,2.238,4.047,2.955C80.701,258.778,82.409,259.137,84.259,259.137z"/>
		<path style="&st2;" d="M117.08,208.271h9.743v58.296h-9.743V208.271z"/>
		<path style="&st2;" d="M135.368,224.403h10.38l11.341,30.981l11.419-30.981h10.141l-17.25,42.481h-8.703L135.368,224.403z"/>
		<path style="&st2;" d="M206.198,267.523c-3.033,0-5.87-0.533-8.505-1.596c-2.633-1.066-4.923-2.558-6.868-4.471
			c-1.942-1.918-3.473-4.221-4.591-6.909c-1.118-2.688-1.677-5.656-1.677-8.903v-0.159c0-3.036,0.504-5.885,1.518-8.547
			c1.009-2.662,2.433-4.991,4.271-6.987c1.838-1.996,4.006-3.566,6.509-4.71c2.501-1.144,5.269-1.716,8.305-1.716
			c3.353,0,6.293,0.611,8.822,1.835c2.529,1.227,4.632,2.875,6.309,4.949c1.677,2.079,2.94,4.487,3.793,7.229
			c0.853,2.743,1.279,5.628,1.279,8.664c0,0.426-0.015,0.866-0.042,1.318c-0.026,0.452-0.068,0.918-0.12,1.396H194.22
			c0.53,3.463,1.903,6.109,4.112,7.946c2.21,1.838,4.885,2.756,8.025,2.756c2.397,0,4.474-0.426,6.231-1.276
			c1.755-0.853,3.486-2.106,5.189-3.753l5.67,5.03c-2.023,2.394-4.43,4.312-7.226,5.747
			C213.425,266.805,210.084,267.523,206.198,267.523z M215.78,242.529c-0.158-1.544-0.507-2.995-1.037-4.354
			c-0.533-1.357-1.25-2.527-2.155-3.512c-0.907-0.985-1.986-1.77-3.236-2.358c-1.25-0.582-2.675-0.879-4.271-0.879
			c-2.982,0-5.443,1.029-7.388,3.078c-1.944,2.049-3.127,4.723-3.554,8.025H215.78z"/>
		<path style="&st2;" d="M261.855,210.667h4.151v55.899h-4.151V210.667z"/>
		<path style="&st2;" d="M295.475,267.362c-2.982,0-5.963-0.556-8.945-1.669c-2.982-1.118-5.563-2.555-7.746-4.32l2.316-3.114
			c2.235,1.705,4.578,3.023,7.029,3.956c2.446,0.931,4.976,1.396,7.585,1.396c2.769,0,5.098-0.689,6.987-2.072
			c1.89-1.383,2.834-3.268,2.834-5.656v-0.161c0-1.17-0.291-2.178-0.876-3.028c-0.587-0.85-1.385-1.593-2.397-2.233
			c-1.011-0.634-2.155-1.167-3.434-1.591c-1.279-0.426-2.636-0.85-4.073-1.276c-1.651-0.476-3.314-0.982-4.991-1.515
			c-1.677-0.53-3.182-1.206-4.51-2.03c-1.333-0.824-2.41-1.846-3.236-3.07c-0.824-1.222-1.237-2.735-1.237-4.541v-0.158
			c0-1.648,0.333-3.148,0.998-4.503c0.665-1.357,1.583-2.537,2.755-3.546c1.17-1.011,2.582-1.794,4.232-2.353
			c1.651-0.559,3.46-0.837,5.43-0.837c2.449,0,4.965,0.408,7.546,1.224c2.581,0.816,4.884,1.924,6.909,3.327l-2.077,3.275
			c-1.864-1.224-3.873-2.21-6.031-2.956c-2.155-0.746-4.326-1.118-6.507-1.118c-2.823,0-5.071,0.678-6.748,2.033
			s-2.516,3.039-2.516,5.061v0.156c0,1.118,0.32,2.087,0.959,2.911c0.64,0.821,1.477,1.528,2.516,2.111
			c1.037,0.585,2.249,1.102,3.632,1.555c1.385,0.452,2.797,0.889,4.234,1.315c1.648,0.478,3.273,0.998,4.869,1.555
			c1.599,0.556,3.036,1.274,4.313,2.152c1.279,0.876,2.303,1.923,3.075,3.145c0.772,1.222,1.157,2.735,1.157,4.544v0.158
			c0,1.807-0.359,3.439-1.076,4.9c-0.72,1.461-1.718,2.711-2.995,3.748c-1.279,1.035-2.769,1.83-4.474,2.389
			C299.28,267.084,297.442,267.362,295.475,267.362z"/>
		<path style="&st2;" d="M335.161,267.362c-2.982,0-5.963-0.556-8.945-1.669c-2.982-1.118-5.563-2.555-7.746-4.32l2.316-3.114
			c2.235,1.705,4.578,3.023,7.029,3.956c2.446,0.931,4.975,1.396,7.585,1.396c2.768,0,5.097-0.689,6.987-2.072
			c1.89-1.383,2.834-3.268,2.834-5.656v-0.161c0-1.17-0.291-2.178-0.876-3.028c-0.588-0.85-1.386-1.593-2.397-2.233
			c-1.011-0.634-2.155-1.167-3.434-1.591c-1.279-0.426-2.636-0.85-4.073-1.276c-1.651-0.476-3.315-0.982-4.991-1.515
			c-1.677-0.53-3.182-1.206-4.51-2.03c-1.334-0.824-2.41-1.846-3.236-3.07c-0.824-1.222-1.237-2.735-1.237-4.541v-0.158
			c0-1.648,0.333-3.148,0.998-4.503c0.665-1.357,1.583-2.537,2.755-3.546c1.17-1.011,2.581-1.794,4.232-2.353
			c1.651-0.559,3.46-0.837,5.43-0.837c2.449,0,4.965,0.408,7.546,1.224c2.581,0.816,4.884,1.924,6.909,3.327l-2.077,3.275
			c-1.864-1.224-3.873-2.21-6.031-2.956c-2.155-0.746-4.326-1.118-6.507-1.118c-2.823,0-5.072,0.678-6.748,2.033
			c-1.677,1.354-2.516,3.039-2.516,5.061v0.156c0,1.118,0.32,2.087,0.959,2.911c0.639,0.821,1.477,1.528,2.516,2.111
			c1.037,0.585,2.248,1.102,3.632,1.555c1.385,0.452,2.797,0.889,4.235,1.315c1.648,0.478,3.273,0.998,4.869,1.555
			c1.599,0.556,3.036,1.274,4.312,2.152c1.279,0.876,2.303,1.923,3.075,3.145c0.772,1.222,1.157,2.735,1.157,4.544v0.158
			c0,1.807-0.359,3.439-1.076,4.9c-0.72,1.461-1.718,2.711-2.995,3.748c-1.279,1.035-2.769,1.83-4.474,2.389
			C338.966,267.084,337.128,267.362,335.161,267.362z"/>
		<path style="&st2;" d="M377.166,267.523c-2.555,0-4.845-0.411-6.868-1.237c-2.025-0.827-3.741-1.981-5.152-3.473
			s-2.475-3.26-3.195-5.311c-0.717-2.051-1.076-4.3-1.076-6.748v-24.916h3.912v24.196c0,4.206,1.118,7.575,3.353,10.101
			c2.236,2.532,5.43,3.795,9.584,3.795c1.968,0,3.819-0.359,5.55-1.079c1.729-0.72,3.234-1.718,4.51-2.995
			c1.279-1.276,2.277-2.807,2.995-4.593c0.72-1.783,1.079-3.738,1.079-5.87v-23.556h3.912v40.729h-3.912v-7.588
			c-1.385,2.394-3.247,4.422-5.589,6.07C383.924,266.696,380.89,267.523,377.166,267.523z"/>
		<path style="&st2;" d="M427.84,267.523c-2.67,0-5.217-0.504-7.645-1.518c-2.428-1.009-4.562-2.449-6.403-4.31
			c-1.843-1.864-3.296-4.1-4.362-6.709c-1.068-2.607-1.601-5.508-1.601-8.706v-0.159c0-2.927,0.491-5.68,1.477-8.264
			c0.985-2.584,2.342-4.832,4.073-6.748c1.729-1.918,3.764-3.434,6.109-4.552c2.342-1.12,4.898-1.677,7.666-1.677
			c2.875,0,5.456,0.546,7.747,1.638c2.288,1.092,4.245,2.594,5.87,4.51c1.622,1.916,2.875,4.167,3.754,6.748
			c0.879,2.581,1.315,5.389,1.315,8.425c0,0.374,0,0.652,0,0.837c0,0.187-0.026,0.442-0.078,0.759h-33.78
			c0.161,2.542,0.723,4.796,1.682,6.753c0.962,1.96,2.163,3.629,3.603,5.006c1.44,1.378,3.083,2.426,4.926,3.14
			c1.84,0.715,3.774,1.071,5.804,1.071c3.2,0,5.909-0.611,8.126-1.835c2.215-1.224,4.177-2.742,5.885-4.554l2.714,2.397
			c-2.077,2.235-4.435,4.086-7.078,5.552C435.001,266.79,431.734,267.523,427.84,267.523z M441.687,244.284
			c-0.161-2.074-0.574-4.058-1.243-5.948c-0.665-1.887-1.601-3.567-2.802-5.033c-1.201-1.461-2.683-2.633-4.443-3.512
			c-1.762-0.879-3.819-1.318-6.166-1.318c-2.03,0-3.923,0.4-5.685,1.198c-1.762,0.798-3.296,1.905-4.604,3.314
			c-1.307,1.409-2.389,3.088-3.244,5.03c-0.853,1.944-1.359,4.032-1.521,6.267H441.687z"/>
	</g>
</g>
<g>
</g>
<g>
</g>
<g>
</g>
<g>
</g>
<g>
</g>
<g>
</g>
<g>
</g>
<g>
</g>
<g>
</g>
<g>
</g>
<g>
</g>
<g>
</g>
<g>
</g>
<g>
</g>
<g>
</g>
</svg>
