<?xml version="1.0" encoding="utf-8"?>
<!-- Generator: Adobe Illustrator 17.1.0, SVG Export Plug-In . SVG Version: 6.00 Build 0)  -->
<!DOCTYPE svg PUBLIC "-//W3C//DTD SVG 1.1//EN" "http://www.w3.org/Graphics/SVG/1.1/DTD/svg11.dtd" [
	<!ENTITY ns_flows "http://ns.adobe.com/Flows/1.0/">
	<!ENTITY ns_extend "http://ns.adobe.com/Extensibility/1.0/">
	<!ENTITY ns_ai "http://ns.adobe.com/AdobeIllustrator/10.0/">
	<!ENTITY ns_graphs "http://ns.adobe.com/Graphs/1.0/">
	<!ENTITY st0 "fill:none;stroke:#63AFC2;stroke-width:11.3911;stroke-miterlimit:10;">
	<!ENTITY st1 "fill:#231815;">
]>
<svg version="1.1" id="圖層_1" xmlns:x="&ns_extend;" xmlns:i="&ns_ai;" xmlns:graph="&ns_graphs;"
	 xmlns="http://www.w3.org/2000/svg" xmlns:xlink="http://www.w3.org/1999/xlink" xmlns:a="http://ns.adobe.com/AdobeSVGViewerExtensions/3.0/"
	 x="0px" y="0px" viewBox="0 0 851 206" style="enable-background:new 0 0 851 206;" xml:space="preserve">
<g>
	<g>
		<path style="&st0;" d="M180.763,99.007c0,47.422-38.441,85.859-85.854,85.859c-47.417,0-85.856-38.437-85.856-85.859
			c0-47.415,38.439-85.852,85.856-85.852C142.322,13.155,180.763,51.592,180.763,99.007z"/>
		<line style="&st0;" x1="94.909" y1="13.155" x2="94.909" y2="184.866"/>
		<line style="&st0;" x1="94.909" y1="105.414" x2="37.488" y2="162.837"/>
		<line style="&st0;" x1="94.909" y1="92.607" x2="151.898" y2="34.802"/>
	</g>
	<g>
		<path style="&st1;" d="M257.141,91.083c-6.152,0-12.037-1.044-17.658-3.131c-5.621-2.088-10.82-5.297-15.604-9.626l8.428-10.025
			c3.871,3.343,7.783,5.907,11.732,7.69c3.949,1.783,8.428,2.675,13.441,2.675c4.327,0,7.765-0.911,10.308-2.733
			c2.544-1.822,3.816-4.253,3.816-7.29v-0.228c0-1.442-0.245-2.714-0.742-3.816c-0.493-1.102-1.409-2.145-2.74-3.133
			c-1.335-0.986-3.159-1.897-5.48-2.735c-2.325-0.835-5.351-1.669-9.081-2.505c-4.264-0.986-8.05-2.108-11.361-3.362
			c-3.311-1.253-6.092-2.77-8.339-4.555c-2.243-1.783-3.96-3.968-5.139-6.55c-1.179-2.581-1.769-5.696-1.769-9.34v-0.228
			c0-3.417,0.679-6.55,2.032-9.398c1.357-2.848,3.223-5.276,5.592-7.29c2.373-2.012,5.228-3.587,8.562-4.728
			c3.333-1.138,6.975-1.708,10.924-1.708c5.848,0,11.109,0.853,15.778,2.562c4.672,1.709,9.055,4.197,13.156,7.46l-7.516,10.594
			c-3.645-2.657-7.253-4.687-10.823-6.094c-3.567-1.404-7.175-2.106-10.82-2.106c-4.101,0-7.29,0.91-9.567,2.733
			c-2.28,1.823-3.419,4.064-3.419,6.721v0.228c0,1.52,0.263,2.868,0.797,4.043c0.534,1.179,1.505,2.242,2.915,3.189
			c1.405,0.951,3.348,1.843,5.822,2.677c2.477,0.836,5.618,1.709,9.422,2.62c4.186,1.064,7.902,2.241,11.135,3.532
			c3.237,1.292,5.918,2.868,8.05,4.728c2.132,1.861,3.753,4.025,4.854,6.493c1.105,2.468,1.657,5.336,1.657,8.601v0.226
			c0,3.723-0.697,7.064-2.091,10.025c-1.394,2.963-3.333,5.467-5.818,7.518c-2.484,2.05-5.47,3.608-8.959,4.67
			C265.147,90.551,261.317,91.083,257.141,91.083z"/>
		<path style="&st1;" d="M329.018,91.311c-4.553,0-8.788-0.816-12.7-2.449c-3.912-1.632-7.29-3.852-10.138-6.663
			c-2.848-2.809-5.069-6.112-6.663-9.909s-2.392-7.82-2.392-12.075v-0.228c0-4.327,0.816-8.389,2.448-12.188
			c1.632-3.795,3.875-7.119,6.723-9.967c2.848-2.848,6.226-5.106,10.138-6.777c3.908-1.67,8.18-2.506,12.815-2.506
			c4.631,0,8.903,0.816,12.815,2.449c3.908,1.633,7.29,3.873,10.138,6.721c2.848,2.848,5.069,6.152,6.663,9.91
			c1.594,3.76,2.392,7.803,2.392,12.131v0.228c0,4.255-0.816,8.278-2.448,12.075c-1.635,3.799-3.875,7.119-6.723,9.967
			c-2.848,2.848-6.248,5.108-10.193,6.778C337.943,90.475,333.649,91.311,329.018,91.311z M329.248,79.351
			c2.792,0,5.299-0.511,7.527-1.537c2.225-1.026,4.131-2.41,5.718-4.159c1.583-1.746,2.792-3.777,3.619-6.094
			c0.83-2.316,1.246-4.765,1.246-7.348v-0.228c0-2.657-0.452-5.163-1.357-7.518c-0.905-2.353-2.169-4.403-3.793-6.152
			c-1.624-1.744-3.545-3.131-5.773-4.157c-2.225-1.025-4.698-1.539-7.413-1.539c-2.718,0-5.191,0.514-7.416,1.539
			c-2.228,1.025-4.135,2.392-5.718,4.101c-1.583,1.708-2.792,3.741-3.623,6.094c-0.827,2.355-1.242,4.822-1.242,7.403v0.228
			c0,2.661,0.452,5.147,1.357,7.463c0.905,2.317,2.169,4.366,3.79,6.15c1.624,1.785,3.548,3.191,5.773,4.216
			C324.171,78.839,326.608,79.351,329.248,79.351z"/>
		<path style="&st1;" d="M376.065,6.79h13.897v83.154h-13.897V6.79z"/>
		<path style="&st1;" d="M402.151,29.8h14.806l16.178,44.196l16.29-44.196h14.465l-24.607,60.601h-12.414L402.151,29.8z"/>
		<path style="&st1;" d="M503.188,91.311c-4.327,0-8.373-0.76-12.133-2.279c-3.756-1.517-7.023-3.645-9.797-6.377
			c-2.77-2.735-4.954-6.018-6.548-9.854c-1.595-3.834-2.392-8.067-2.392-12.7v-0.228c0-4.329,0.719-8.391,2.165-12.188
			c1.439-3.797,3.471-7.119,6.092-9.967c2.621-2.848,5.714-5.088,9.285-6.721c3.567-1.633,7.516-2.449,11.847-2.449
			c4.784,0,8.977,0.873,12.585,2.62c3.608,1.748,6.608,4.101,8.999,7.062c2.392,2.962,4.194,6.398,5.41,10.31
			c1.216,3.912,1.825,8.03,1.825,12.359c0,0.608-0.022,1.235-0.06,1.88c-0.037,0.645-0.096,1.309-0.17,1.993h-44.196
			c0.756,4.937,2.714,8.714,5.866,11.334c3.152,2.62,6.967,3.93,11.447,3.93c3.419,0,6.382-0.608,8.888-1.823
			c2.503-1.214,4.972-3,7.401-5.354l8.087,7.177c-2.885,3.417-6.319,6.15-10.309,8.2C513.496,90.286,508.731,91.311,503.188,91.311z
			 M516.856,55.658c-0.226-2.203-0.723-4.272-1.48-6.209c-0.76-1.935-1.783-3.606-3.074-5.011c-1.294-1.405-2.833-2.525-4.617-3.361
			c-1.783-0.835-3.815-1.253-6.092-1.253c-4.253,0-7.764,1.465-10.538,4.387c-2.774,2.924-4.461,6.739-5.069,11.448H516.856z"/>
		<path style="&st1;" d="M582.58,10.207h5.922v79.738h-5.922V10.207z"/>
		<path style="&st1;" d="M630.536,91.083c-4.253,0-8.506-0.795-12.759-2.384c-4.253-1.591-7.935-3.643-11.05-6.159l3.304-4.442
			c3.189,2.432,6.53,4.31,10.027,5.64c3.489,1.329,7.097,1.993,10.82,1.993c3.949,0,7.273-0.985,9.965-2.955
			c2.699-1.971,4.042-4.661,4.042-8.071v-0.228c0-1.667-0.415-3.107-1.246-4.32c-0.838-1.212-1.98-2.273-3.419-3.183
			c-1.446-0.909-3.077-1.667-4.9-2.273c-1.824-0.604-3.76-1.21-5.811-1.819c-2.355-0.68-4.728-1.401-7.119-2.16
			c-2.392-0.758-4.539-1.724-6.433-2.898c-1.902-1.176-3.437-2.633-4.616-4.377c-1.176-1.743-1.765-3.903-1.765-6.48v-0.228
			c0-2.349,0.475-4.489,1.424-6.422c0.949-1.932,2.258-3.617,3.931-5.058c1.668-1.441,3.682-2.558,6.036-3.354
			c2.355-0.795,4.935-1.194,7.746-1.194c3.493,0,7.082,0.582,10.766,1.746c3.679,1.165,6.964,2.746,9.856,4.746l-2.966,4.67
			c-2.655-1.745-5.525-3.15-8.603-4.214c-3.072-1.062-6.168-1.595-9.279-1.595c-4.027,0-7.234,0.966-9.626,2.9
			c-2.392,1.932-3.589,4.337-3.589,7.218v0.226c0,1.592,0.456,2.975,1.368,4.149c0.912,1.176,2.106,2.18,3.589,3.013
			c1.479,0.834,3.207,1.572,5.18,2.217c1.976,0.643,3.99,1.27,6.041,1.874c2.351,0.684,4.668,1.424,6.947,2.219
			c2.277,0.795,4.331,1.819,6.148,3.068c1.824,1.252,3.285,2.748,4.39,4.49c1.098,1.743,1.646,3.901,1.646,6.478v0.228
			c0,2.577-0.511,4.908-1.535,6.991c-1.023,2.084-2.447,3.866-4.272,5.344c-1.824,1.477-3.945,2.614-6.378,3.409
			C635.965,90.684,633.344,91.083,630.536,91.083z"/>
		<path style="&st1;" d="M687.149,91.083c-4.257,0-8.506-0.795-12.763-2.384c-4.25-1.591-7.935-3.643-11.05-6.159l3.308-4.442
			c3.189,2.432,6.526,4.31,10.026,5.64c3.486,1.329,7.097,1.993,10.82,1.993c3.945,0,7.268-0.985,9.967-2.955
			c2.692-1.971,4.042-4.661,4.042-8.071v-0.228c0-1.667-0.415-3.107-1.253-4.32c-0.838-1.212-1.973-2.273-3.419-3.183
			c-1.439-0.909-3.07-1.667-4.894-2.273c-1.824-0.604-3.76-1.21-5.814-1.819c-2.351-0.68-4.724-1.401-7.119-2.16
			c-2.388-0.758-4.539-1.724-6.43-2.898c-1.906-1.176-3.441-2.633-4.62-4.377c-1.172-1.743-1.765-3.903-1.765-6.48v-0.228
			c0-2.349,0.475-4.489,1.424-6.422c0.949-1.932,2.262-3.617,3.931-5.058c1.668-1.441,3.686-2.558,6.037-3.354
			c2.358-0.795,4.939-1.194,7.75-1.194c3.493,0,7.083,0.582,10.761,1.746c3.686,1.165,6.971,2.746,9.856,4.746l-2.959,4.67
			c-2.662-1.745-5.525-3.15-8.603-4.214c-3.078-1.062-6.17-1.595-9.285-1.595c-4.027,0-7.231,0.966-9.626,2.9
			c-2.388,1.932-3.589,4.337-3.589,7.218v0.226c0,1.592,0.46,2.975,1.372,4.149c0.912,1.176,2.106,2.18,3.59,3.013
			c1.476,0.834,3.204,1.572,5.176,2.217c1.98,0.643,3.99,1.27,6.044,1.874c2.351,0.684,4.665,1.424,6.942,2.219
			c2.284,0.795,4.331,1.819,6.155,3.068c1.824,1.252,3.286,2.748,4.383,4.49c1.105,1.743,1.654,3.901,1.654,6.478v0.228
			c0,2.577-0.512,4.908-1.535,6.991c-1.031,2.084-2.455,3.866-4.272,5.344c-1.824,1.477-3.953,2.614-6.385,3.409
			C692.578,90.684,689.952,91.083,687.149,91.083z"/>
		<path style="&st1;" d="M747.063,91.311c-3.641,0-6.912-0.587-9.797-1.765c-2.885-1.177-5.332-2.827-7.349-4.956
			c-2.01-2.125-3.53-4.65-4.554-7.574c-1.023-2.924-1.535-6.133-1.535-9.626V31.851h5.577v34.514c0,6,1.594,10.803,4.783,14.409
			c3.189,3.608,7.75,5.41,13.675,5.41c2.803,0,5.443-0.511,7.913-1.537c2.47-1.026,4.613-2.449,6.437-4.272
			c1.825-1.823,3.248-4.005,4.272-6.55c1.024-2.544,1.535-5.334,1.535-8.373V31.851h5.584v58.094h-5.584V79.123
			c-1.973,3.417-4.627,6.305-7.972,8.658C756.704,90.134,752.381,91.311,747.063,91.311z"/>
		<path style="&st1;" d="M819.348,91.311c-3.805,0-7.438-0.721-10.902-2.164c-3.463-1.442-6.511-3.493-9.136-6.152
			c-2.625-2.657-4.702-5.846-6.222-9.569c-1.52-3.719-2.284-7.859-2.284-12.416v-0.228c0-4.175,0.705-8.104,2.106-11.79
			c1.409-3.682,3.345-6.891,5.814-9.624c2.462-2.735,5.369-4.899,8.714-6.493c3.337-1.596,6.986-2.394,10.931-2.394
			c4.101,0,7.787,0.781,11.05,2.336c3.263,1.557,6.059,3.702,8.373,6.435c2.314,2.735,4.101,5.944,5.355,9.626
			c1.253,3.684,1.876,7.689,1.876,12.018c0,0.532,0,0.931,0,1.196c0,0.267-0.037,0.627-0.111,1.083h-48.182
			c0.23,3.626,1.031,6.839,2.395,9.633c1.372,2.796,3.085,5.176,5.139,7.141c2.055,1.963,4.398,3.458,7.031,4.477
			c2.625,1.02,5.384,1.53,8.276,1.53c4.568,0,8.432-0.873,11.591-2.622c3.159-1.744,5.962-3.91,8.395-6.493l3.871,3.419
			c-2.959,3.189-6.326,5.829-10.093,7.916C829.567,90.267,824.902,91.311,819.348,91.311z M839.104,58.163
			c-0.23-2.961-0.823-5.79-1.772-8.486c-0.949-2.694-2.284-5.087-3.997-7.177c-1.713-2.088-3.827-3.758-6.341-5.012
			c-2.514-1.253-5.443-1.88-8.795-1.88c-2.893,0-5.592,0.569-8.106,1.709c-2.514,1.138-4.702,2.716-6.571,4.726
			c-1.861,2.014-3.404,4.405-4.628,7.177c-1.216,2.773-1.936,5.753-2.165,8.942H839.104z"/>
	</g>
	<g>
		<path style="&st1;" d="M253.352,175.522v2.892c-9.148,2.718-19.258,4.82-30.332,6.303l-0.519-3.337
			C232.487,180.491,242.771,178.537,253.352,175.522z M253.278,142.224h-30.554v-3.041h30.554V142.224z M226.505,148.602
			l3.041-0.742c2.966,9.196,5.043,17.65,6.229,25.363l-3.263,0.89C231.326,165.707,229.324,157.204,226.505,148.602z
			 M230.955,123.684l2.744-1.335c2.175,3.263,4.572,7.861,7.194,13.794l-3.189,1.261
			C235.479,131.916,233.228,127.344,230.955,123.684z M246.529,147.564l2.967,0.593c-1.088,9.741-3.239,18.492-6.452,26.253
			l-2.967-1.113C243.29,165.733,245.44,157.156,246.529,147.564z M258.172,190.132h-3.189v-32.408h12.088V120.94h3.411v17.205
			h20.913v3.041h-20.913v16.538h15.944v32.408h-3.263v-6.081h-24.992V190.132z M283.164,160.764h-24.992v20.246h24.992V160.764z"/>
		<path style="&st1;" d="M302.194,164.769l-2.077-2.299c4.005-3.708,6.007-8.629,6.007-14.758v-8.083h27.736v12.311h-24.918
			C308.249,156.786,306,161.061,302.194,164.769z M315.246,160.393h-6.378v-2.892h54.953v2.892h-10.679v19.133l16.093-0.89v2.818
			l-16.093,0.742v7.935h-3.041v-7.787c-15.772,0.79-32.236,1.361-49.391,1.706l-0.371-2.818l14.906-0.297V160.393z M318.435,120.347
			h2.967v4.895h16.167v2.744h-16.167v4.524h13.126v2.818h-29.664v-2.818h13.571v-4.524h-16.241v-2.744h16.241V120.347z
			 M309.017,142.372v6.674h9.493v-6.674H309.017z M318.212,160.393v4.45h31.889v-4.45H318.212z M318.212,167.661v4.598h31.889
			v-4.598H318.212z M318.212,180.862c13.646-0.345,24.275-0.767,31.889-1.261v-4.598h-31.889V180.862z M330.968,149.047v-6.674
			h-9.567v6.674H330.968z M334.824,156.092l-0.816-2.892c5.29-0.742,10.356-2.251,15.203-4.524
			c-3.758-2.569-6.478-5.091-8.158-7.564h-4.079v-2.818h26.55v2.744c-2.423,3.263-5.315,5.833-8.677,7.713
			c4.35,2.421,9.096,4.079,14.239,4.969l-1.113,2.67c-5.736-1.086-11.076-3.089-16.019-6.007
			C346.764,153.052,341.054,154.954,334.824,156.092z M335.788,134.734c4.646-0.593,6.971-2.844,6.971-6.749v-5.117h16.167v7.49
			c0,1.68,0.79,2.522,2.373,2.522h5.562v2.892H361.3c-3.512,0-5.265-1.78-5.265-5.339v-4.746h-10.457v2.299
			c0,5.388-2.918,8.555-8.751,9.493L335.788,134.734z M360.039,141.112h-15.648c2.026,2.325,4.572,4.401,7.638,6.229
			C355.341,145.313,358.011,143.236,360.039,141.112z"/>
	</g>
</g>
<g>
</g>
<g>
</g>
<g>
</g>
<g>
</g>
<g>
</g>
<g>
</g>
<g>
</g>
<g>
</g>
<g>
</g>
<g>
</g>
<g>
</g>
<g>
</g>
<g>
</g>
<g>
</g>
<g>
</g>
</svg>
